<svg
  width="100"
  height="100"
  viewBox="0 0 100 100"
  fill="none"
  xmlns="http://www.w3.org/2000/svg"
>
  <!-- Background Circle -->
  <circle cx="50" cy="50" r="45" fill="#646CFF"/> <!-- Vite Purple -->

  <!-- Background Triangle -->
  <polygon points="50,10 95,90 5,90" fill="url(#viteGradient)"/>

  <!-- Tree structure -->
  <circle cx="50" cy="25" r="6" fill="#FFD940" stroke="#FFFFFF" stroke-width="2"/>
  <line x1="50" y1="31" x2="30" y2="55" stroke="#FFFFFF" stroke-width="3" />
  <line x1="50" y1="31" x2="70" y2="55" stroke="#FFFFFF" stroke-width="3" />
  
  <circle cx="30" cy="55" r="6" fill="#FFD940" stroke="#FFFFFF" stroke-width="2"/>
  <line x1="30" y1="61" x2="20" y2="80" stroke="#FFFFFF" stroke-width="3" />
  <line x1="30" y1="61" x2="40" y2="80" stroke="#FFFFFF" stroke-width="3" />

  <circle cx="70" cy="55" r="6" fill="#FFD940" stroke="#FFFFFF" stroke-width="2"/>
  <line x1="70" y1="61" x2="60" y2="80" stroke="#FFFFFF" stroke-width="3" />
  <line x1="70" y1="61" x2="80" y2="80" stroke="#FFFFFF" stroke-width="3" />

  <circle cx="20" cy="80" r="6" fill="#FF8C00" stroke="#FFFFFF" stroke-width="2"/>
  <circle cx="40" cy="80" r="6" fill="#FF8C00" stroke="#FFFFFF" stroke-width="2"/>
  <circle cx="60" cy="80" r="6" fill="#FF8C00" stroke="#FFFFFF" stroke-width="2"/>
  <circle cx="80" cy="80" r="6" fill="#FF8C00" stroke="#FFFFFF" stroke-width="2"/>

  <!-- Gradient Definition -->
  <defs>
    <linearGradient id="viteGradient" x1="0%" y1="0%" x2="100%" y2="100%">
      <stop offset="0%" style="stop-color:#646CFF; stop-opacity:1" />
      <stop offset="100%" style="stop-color:#FF8C00; stop-opacity:1" />
    </linearGradient>
  </defs>
</svg>
